PathFileType	4	(X/Y/Z)	C:\Users\italobelli\Desktop\GitHub\PTbot_officialCBL\Personal_Results\FLX22_noisy1.trc
DataRate	CameraRate	NumFrames	NumMarkers	Units	OrigDataRate	OrigDataStartFrame	OrigNumFrames
106.125000	106.125000	43	9	m	106.125000	532	850
Frame#	Time		gu		centelbow		EpL		centpxt8		centijc7		ij		ts		aa		ai
			X1	Y1	Z1	X2	Y2	Z2	X3	Y3	Z3	X4	Y4	Z4	X5	Y5	Z5	X6	Y6	Z6	X7	Y7	Z7	X8	Y8	Z8	X9	Y9	Z9

532	5.0035	-0.093463	0.063934	0.11042	0.094198	0.18987	0.2152	0.074885	0.21499	0.2092	-0.046816	-0.15316	-0.008669	-0.046816	0.031938	-0.008669	0	0	0	-0.15414	-0.010792	0.053196	-0.12316	0.082926	0.12014	-0.12732	-0.076388	0.14185
533	5.013	-0.09312	0.063967	0.11068	0.095596	0.18728	0.21558	0.076508	0.21263	0.2098	-0.046816	-0.15316	-0.008669	-0.046816	0.031938	-0.008669	0	0	0	-0.15423	-0.010502	0.053181	-0.12283	0.082861	0.12042	-0.1275	-0.076541	0.14147
534	5.0224	-0.092761	0.063988	0.11096	0.096988	0.18454	0.21601	0.078141	0.21013	0.21044	-0.046816	-0.15316	-0.008669	-0.046816	0.031938	-0.008669	0	0	0	-0.15431	-0.010198	0.05315	-0.1225	0.082783	0.12071	-0.12768	-0.0767	0.14106
535	5.0318	-0.092384	0.063997	0.11126	0.098372	0.18166	0.21648	0.079783	0.20748	0.21114	-0.046816	-0.15316	-0.008669	-0.046816	0.031938	-0.008669	0	0	0	-0.15438	-0.0098789	0.053104	-0.12216	0.082691	0.12101	-0.12786	-0.076866	0.14061
536	5.0412	-0.091993	0.063995	0.11156	0.099748	0.17866	0.21698	0.081432	0.20471	0.21187	-0.046816	-0.15316	-0.008669	-0.046816	0.031938	-0.008669	0	0	0	-0.15445	-0.0095459	0.053044	-0.12181	0.082587	0.12131	-0.12803	-0.077037	0.14013
537	5.0506	-0.091587	0.063981	0.11188	0.10111	0.17553	0.21752	0.083084	0.2018	0.21265	-0.046816	-0.15316	-0.008669	-0.046816	0.031938	-0.008669	0	0	0	-0.15451	-0.0091993	0.052969	-0.12146	0.08247	0.12162	-0.12821	-0.077214	0.13962
538	5.0601	-0.091168	0.063956	0.11221	0.10247	0.17228	0.21808	0.08474	0.19877	0.21347	-0.046816	-0.15316	-0.008669	-0.046816	0.031938	-0.008669	0	0	0	-0.15456	-0.0088396	0.052881	-0.12111	0.082341	0.12193	-0.12838	-0.077396	0.13908
539	5.0695	-0.090735	0.063919	0.11255	0.10381	0.16891	0.21868	0.086396	0.19562	0.21432	-0.046816	-0.15316	-0.008669	-0.046816	0.031938	-0.008669	0	0	0	-0.15462	-0.0084673	0.05278	-0.12075	0.082199	0.12225	-0.12854	-0.077582	0.1385
540	5.0789	-0.090292	0.063872	0.1129	0.10514	0.16543	0.21931	0.08805	0.19235	0.21521	-0.046816	-0.15316	-0.008669	-0.046816	0.031938	-0.008669	0	0	0	-0.15466	-0.008083	0.052667	-0.12038	0.082046	0.12258	-0.12871	-0.077773	0.1379
541	5.0883	-0.089837	0.063814	0.11327	0.10645	0.16184	0.21996	0.089701	0.18898	0.21614	-0.046816	-0.15316	-0.008669	-0.046816	0.031938	-0.008669	0	0	0	-0.1547	-0.0076872	0.052541	-0.12002	0.081882	0.12292	-0.12887	-0.077967	0.13726
542	5.0978	-0.089372	0.063745	0.11364	0.10774	0.15815	0.22064	0.091346	0.18549	0.21709	-0.046816	-0.15316	-0.008669	-0.046816	0.031938	-0.008669	0	0	0	-0.15474	-0.0072804	0.052405	-0.11964	0.081706	0.12325	-0.12903	-0.078166	0.13661
543	5.1072	-0.088898	0.063666	0.11402	0.10902	0.15436	0.22134	0.092984	0.18191	0.21807	-0.046816	-0.15316	-0.008669	-0.046816	0.031938	-0.008669	0	0	0	-0.15477	-0.006863	0.052257	-0.11927	0.081519	0.1236	-0.12918	-0.078367	0.13592
544	5.1166	-0.088417	0.063577	0.11441	0.11027	0.15048	0.22207	0.094611	0.17823	0.21908	-0.046816	-0.15316	-0.008669	-0.046816	0.031938	-0.008669	0	0	0	-0.15479	-0.0064357	0.052099	-0.1189	0.081321	0.12395	-0.12934	-0.078572	0.13521
545	5.126	-0.087928	0.063478	0.11481	0.1115	0.14651	0.22281	0.096228	0.17445	0.22011	-0.046816	-0.15316	-0.008669	-0.046816	0.031938	-0.008669	0	0	0	-0.15481	-0.0059989	0.051931	-0.11852	0.081113	0.1243	-0.12949	-0.078779	0.13447
546	5.1355	-0.087432	0.063369	0.11522	0.11271	0.14245	0.22357	0.09783	0.17059	0.22117	-0.046816	-0.15316	-0.008669	-0.046816	0.031938	-0.008669	0	0	0	-0.15483	-0.005553	0.051755	-0.11814	0.080895	0.12466	-0.12965	-0.078988	0.13371
547	5.1449	-0.086931	0.06325	0.11564	0.1139	0.13832	0.22434	0.099417	0.16664	0.22224	-0.046816	-0.15316	-0.008669	-0.046816	0.031938	-0.008669	0	0	0	-0.15484	-0.0050988	0.051569	-0.11776	0.080667	0.12502	-0.1298	-0.079199	0.13293
548	5.1543	-0.086426	0.063122	0.11606	0.11505	0.13411	0.22513	0.10099	0.16262	0.22333	-0.046816	-0.15316	-0.008669	-0.046816	0.031938	-0.008669	0	0	0	-0.15485	-0.0046366	0.051375	-0.11738	0.08043	0.12539	-0.12995	-0.079412	0.13213
549	5.1637	-0.085917	0.062985	0.11649	0.11618	0.12983	0.22593	0.10253	0.15852	0.22444	-0.046816	-0.15316	-0.008669	-0.046816	0.031938	-0.008669	0	0	0	-0.15485	-0.0041669	0.051174	-0.117	0.080183	0.12576	-0.13009	-0.079625	0.13131
550	5.1731	-0.085405	0.062838	0.11693	0.11729	0.12549	0.22674	0.10406	0.15435	0.22556	-0.046816	-0.15316	-0.008669	-0.046816	0.031938	-0.008669	0	0	0	-0.15484	-0.0036903	0.050965	-0.11662	0.079927	0.12613	-0.13024	-0.07984	0.13047
551	5.1826	-0.084892	0.062683	0.11737	0.11836	0.12108	0.22756	0.10556	0.15011	0.22669	-0.046816	-0.15316	-0.008669	-0.046816	0.031938	-0.008669	0	0	0	-0.15483	-0.0032073	0.05075	-0.11624	0.079663	0.12651	-0.13039	-0.080054	0.12961
552	5.192	-0.084378	0.062519	0.11782	0.1194	0.11662	0.22839	0.10704	0.14582	0.22783	-0.046816	-0.15316	-0.008669	-0.046816	0.031938	-0.008669	0	0	0	-0.15482	-0.0027184	0.050529	-0.11586	0.07939	0.12689	-0.13053	-0.080269	0.12874
553	5.2014	-0.083863	0.062347	0.11827	0.1204	0.11211	0.22922	0.10849	0.14146	0.22897	-0.046816	-0.15316	-0.008669	-0.046816	0.031938	-0.008669	0	0	0	-0.1548	-0.0022241	0.050303	-0.11548	0.079108	0.12727	-0.13068	-0.080484	0.12785
554	5.2108	-0.08335	0.062166	0.11873	0.12137	0.10755	0.23005	0.10991	0.13706	0.23012	-0.046816	-0.15316	-0.008669	-0.046816	0.031938	-0.008669	0	0	0	-0.15478	-0.0017249	0.050071	-0.1151	0.078819	0.12766	-0.13082	-0.080698	0.12694
555	5.2203	-0.082838	0.061977	0.11919	0.12231	0.10295	0.23089	0.1113	0.13261	0.23127	-0.046816	-0.15316	-0.008669	-0.046816	0.031938	-0.008669	0	0	0	-0.15476	-0.0012213	0.049835	-0.11473	0.078522	0.12804	-0.13097	-0.08091	0.12602
556	5.2297	-0.082329	0.06178	0.11966	0.1232	0.098317	0.23172	0.11265	0.12812	0.23242	-0.046816	-0.15316	-0.008669	-0.046816	0.031938	-0.008669	0	0	0	-0.15473	-0.0007139	0.049595	-0.11436	0.078218	0.12843	-0.13111	-0.081122	0.12509
557	5.2391	-0.081824	0.061576	0.12013	0.12406	0.093648	0.23255	0.11397	0.12359	0.23357	-0.046816	-0.15316	-0.008669	-0.046816	0.031938	-0.008669	0	0	0	-0.15469	-0.00020313	0.049352	-0.11399	0.077907	0.12882	-0.13126	-0.081332	0.12415
558	5.2485	-0.081323	0.061364	0.1206	0.12487	0.088952	0.23338	0.11525	0.11902	0.23471	-0.046816	-0.15316	-0.008669	-0.046816	0.031938	-0.008669	0	0	0	-0.15465	0.00031049	0.049106	-0.11363	0.077589	0.12922	-0.1314	-0.081539	0.1232
559	5.258	-0.080828	0.061144	0.12107	0.12565	0.084232	0.2342	0.11649	0.11443	0.23585	-0.046816	-0.15316	-0.008669	-0.046816	0.031938	-0.008669	0	0	0	-0.15461	0.00082643	0.048858	-0.11327	0.077264	0.12961	-0.13155	-0.081745	0.12224
560	5.2674	-0.080339	0.060918	0.12155	0.12638	0.079495	0.23501	0.11768	0.10982	0.23698	-0.046816	-0.15316	-0.008669	-0.046816	0.031938	-0.008669	0	0	0	-0.15456	0.0013442	0.048607	-0.11291	0.076933	0.13	-0.13169	-0.081947	0.12127
561	5.2768	-0.079857	0.060684	0.12203	0.12706	0.074744	0.23581	0.11884	0.10518	0.23809	-0.046816	-0.15316	-0.008669	-0.046816	0.031938	-0.008669	0	0	0	-0.15451	0.0018633	0.048356	-0.11256	0.076596	0.1304	-0.13184	-0.082147	0.12029
562	5.2862	-0.079383	0.060444	0.1225	0.1277	0.069984	0.2366	0.11994	0.10053	0.23919	-0.046816	-0.15316	-0.008669	-0.046816	0.031938	-0.008669	0	0	0	-0.15445	0.0023831	0.048104	-0.11222	0.076253	0.13079	-0.13198	-0.082342	0.11931
563	5.2956	-0.078919	0.060197	0.12298	0.12829	0.06522	0.23737	0.121	0.095868	0.24028	-0.046816	-0.15316	-0.008669	-0.046816	0.031938	-0.008669	0	0	0	-0.1544	0.0029032	0.047851	-0.11188	0.075905	0.13119	-0.13213	-0.082534	0.11832
564	5.3051	-0.078464	0.059943	0.12346	0.12883	0.060457	0.23813	0.12201	0.091201	0.24134	-0.046816	-0.15316	-0.008669	-0.046816	0.031938	-0.008669	0	0	0	-0.15433	0.0034232	0.0476	-0.11154	0.075552	0.13158	-0.13228	-0.082722	0.11732
565	5.3145	-0.07802	0.059683	0.12394	0.12932	0.055699	0.23887	0.12296	0.086532	0.24239	-0.046816	-0.15316	-0.008669	-0.046816	0.031938	-0.008669	0	0	0	-0.15426	0.0039423	0.047348	-0.11121	0.075193	0.13198	-0.13243	-0.082905	0.11633
566	5.3239	-0.077588	0.059418	0.12442	0.12976	0.05095	0.23959	0.12387	0.081867	0.24341	-0.046816	-0.15316	-0.008669	-0.046816	0.031938	-0.008669	0	0	0	-0.15419	0.0044602	0.047099	-0.11089	0.07483	0.13237	-0.13258	-0.083083	0.11533
567	5.3333	-0.077168	0.059146	0.1249	0.13014	0.046216	0.24029	0.12471	0.077209	0.24441	-0.046816	-0.15316	-0.008669	-0.046816	0.031938	-0.008669	0	0	0	-0.15412	0.0049764	0.046851	-0.11058	0.074463	0.13277	-0.13273	-0.083256	0.11433
568	5.3428	-0.076762	0.058869	0.12537	0.13047	0.041502	0.24097	0.1255	0.072564	0.24538	-0.046816	-0.15316	-0.008669	-0.046816	0.031938	-0.008669	0	0	0	-0.15404	0.0054903	0.046606	-0.11027	0.074092	0.13316	-0.13288	-0.083424	0.11333
569	5.3522	-0.076371	0.058586	0.12585	0.13074	0.036812	0.24163	0.12622	0.067936	0.24633	-0.046816	-0.15316	-0.008669	-0.046816	0.031938	-0.008669	0	0	0	-0.15396	0.0060014	0.046364	-0.10998	0.073717	0.13355	-0.13304	-0.083585	0.11234
570	5.3616	-0.075995	0.058298	0.12632	0.13095	0.03215	0.24225	0.12689	0.06333	0.24724	-0.046816	-0.15316	-0.008669	-0.046816	0.031938	-0.008669	0	0	0	-0.15387	0.0065092	0.046125	-0.10969	0.073338	0.13394	-0.13319	-0.08374	0.11134
571	5.371	-0.075635	0.058005	0.12679	0.1311	0.027522	0.24285	0.12749	0.058749	0.24811	-0.046816	-0.15316	-0.008669	-0.046816	0.031938	-0.008669	0	0	0	-0.15378	0.0070132	0.045891	-0.10941	0.072956	0.13433	-0.13335	-0.083888	0.11035
572	5.3804	-0.075292	0.057707	0.12725	0.13119	0.022931	0.24342	0.12802	0.0542	0.24896	-0.046816	-0.15316	-0.008669	-0.046816	0.031938	-0.008669	0	0	0	-0.15369	0.0075128	0.045661	-0.10914	0.072571	0.13471	-0.13351	-0.08403	0.10936
573	5.3899	-0.074968	0.057404	0.12771	0.13122	0.018384	0.24395	0.12848	0.049685	0.24976	-0.046816	-0.15316	-0.008669	-0.046816	0.031938	-0.008669	0	0	0	-0.1536	0.0080077	0.045436	-0.10888	0.072184	0.1351	-0.13368	-0.084163	0.10838
574	5.3993	-0.074662	0.057097	0.12817	0.13119	0.013884	0.24445	0.12888	0.045211	0.25052	-0.046816	-0.15316	-0.008669	-0.046816	0.031938	-0.008669	0	0	0	-0.1535	0.0084972	0.045217	-0.10863	0.071794	0.13548	-0.13384	-0.084289	0.10741
